<?xml version="1.0" standalone="no"?>
<!DOCTYPE svg PUBLIC "-//W3C//DTD SVG 20010904//EN"
 "http://www.w3.org/TR/2001/REC-SVG-20010904/DTD/svg10.dtd">
<svg version="1.0" xmlns="http://www.w3.org/2000/svg"
 width="1024.000000pt" height="1024.000000pt" viewBox="0 0 1024.000000 1024.000000"
 preserveAspectRatio="xMidYMid meet">
<metadata>
Created by potrace 1.11, written by Peter Selinger 2001-2013
</metadata>
<g transform="translate(0.000000,1024.000000) scale(0.100000,-0.100000)"
fill="#000000" stroke="none">
<path d="M5047 9863 c-1 0 -63 -4 -137 -7 -75 -4 -147 -8 -160 -11 -14 -2 -61
-7 -105 -11 -102 -9 -130 -12 -130 -14 0 -1 -18 -4 -40 -6 -37 -3 -80 -11 -80
-14 0 0 -20 -3 -46 -5 -25 -2 -98 -16 -163 -30 -65 -14 -122 -23 -126 -20 -5
3 -10 1 -12 -4 -1 -5 -16 -11 -33 -14 -16 -3 -73 -17 -125 -32 -52 -15 -100
-28 -107 -29 -7 -1 -16 -5 -19 -9 -4 -4 -17 -7 -29 -7 -12 0 -25 -3 -29 -7 -4
-5 -12 -9 -17 -9 -5 -1 -11 -3 -14 -4 -5 -3 -6 -3 -50 -15 -16 -4 -34 -11 -40
-15 -10 -8 -63 -23 -80 -24 -5 -1 -12 -3 -15 -6 -12 -13 -144 -59 -153 -53 -6
3 -7 1 -3 -5 3 -6 -9 -15 -31 -22 -50 -16 -379 -176 -415 -201 -17 -12 -28
-16 -28 -9 0 7 -9 2 -20 -11 -10 -13 -19 -20 -20 -16 0 5 -7 1 -16 -8 -9 -9
-23 -14 -31 -11 -8 3 -11 1 -8 -4 3 -6 -2 -13 -12 -17 -10 -4 -42 -22 -70 -40
-29 -18 -55 -33 -58 -33 -3 0 -15 -9 -27 -20 -12 -11 -28 -18 -36 -15 -7 2
-11 1 -8 -3 3 -5 -13 -19 -34 -33 -22 -13 -40 -27 -40 -31 0 -5 -4 -8 -9 -8
-12 0 -157 -103 -193 -138 -16 -14 -28 -23 -28 -19 0 4 -8 -1 -19 -10 -10 -10
-38 -34 -61 -53 -24 -19 -48 -39 -54 -45 -6 -5 -40 -35 -75 -65 -36 -30 -91
-81 -124 -113 -32 -31 -63 -54 -69 -51 -6 4 -8 2 -5 -3 4 -6 -13 -29 -38 -52
-25 -23 -45 -46 -45 -51 0 -6 -7 -10 -15 -10 -8 0 -15 -4 -15 -9 0 -6 -23 -34
-51 -63 -28 -29 -65 -70 -82 -90 -17 -20 -35 -34 -40 -31 -6 3 -7 1 -3 -5 4
-7 -4 -22 -18 -36 -14 -13 -26 -29 -26 -35 0 -7 -5 -9 -10 -6 -6 3 -10 -1 -10
-9 0 -8 -6 -19 -13 -23 -8 -4 -17 -16 -20 -26 -4 -10 -12 -15 -17 -12 -6 4 -9
2 -8 -3 3 -9 -32 -60 -62 -92 -8 -8 -21 -28 -29 -42 -8 -15 -19 -24 -25 -21
-6 3 -8 3 -5 -1 4 -4 -42 -80 -102 -169 -59 -89 -106 -164 -103 -168 2 -4 -3
-9 -11 -13 -8 -3 -15 -13 -15 -21 0 -10 -5 -13 -12 -9 -7 4 -8 3 -4 -5 4 -6 3
-17 -2 -24 -15 -18 -50 -81 -102 -184 -26 -51 -51 -89 -55 -85 -5 4 -5 2 -1
-5 4 -7 -3 -32 -16 -55 -12 -24 -23 -45 -23 -48 -1 -3 -14 -32 -29 -65 -15
-33 -33 -72 -39 -87 -7 -16 -16 -28 -20 -28 -5 0 -6 -4 -3 -9 6 -9 -39 -127
-55 -148 -7 -7 -5 -13 3 -16 8 -4 9 -6 1 -6 -6 -1 -17 -23 -24 -51 -7 -27 -17
-50 -21 -50 -5 0 -7 -4 -4 -8 3 -5 -1 -19 -8 -33 -7 -13 -13 -27 -13 -32 -6
-35 -17 -74 -25 -84 -6 -7 -7 -13 -3 -13 4 0 2 -6 -4 -13 -6 -8 -8 -17 -4 -21
4 -3 -2 -13 -13 -22 -10 -8 -13 -12 -5 -8 11 6 13 3 7 -12 -4 -10 -9 -26 -11
-34 -2 -8 -11 -42 -19 -75 -9 -33 -18 -71 -20 -85 -3 -14 -5 -26 -7 -27 -2 -4
-17 -71 -24 -118 -1 -5 -3 -12 -4 -15 -1 -3 -4 -16 -6 -30 -2 -14 -6 -38 -10
-55 -4 -16 -6 -40 -6 -53 0 -13 -3 -21 -8 -18 -4 3 -6 -6 -3 -19 3 -17 0 -25
-9 -25 -11 0 -11 -2 1 -10 11 -7 11 -10 2 -10 -10 0 -10 -5 -2 -20 6 -11 7
-20 2 -20 -4 0 -9 -15 -10 -32 -3 -53 -9 -113 -12 -115 -3 -3 -7 -61 -9 -124
-1 -29 -4 -38 -13 -33 -10 6 -10 4 -2 -7 12 -15 15 -49 5 -49 -3 0 -6 -13 -6
-30 -1 -16 3 -30 8 -30 4 0 6 -4 2 -10 -3 -5 -6 -25 -7 -44 -1 -22 -5 -33 -12
-29 -8 5 -8 2 0 -8 6 -8 11 -23 11 -34 0 -11 -5 -26 -11 -34 -8 -11 -8 -13 1
-7 9 5 13 0 13 -15 0 -19 -2 -20 -18 -8 -15 13 -16 12 -3 -4 17 -22 23 -157 6
-157 -5 0 -4 -4 3 -8 7 -5 11 -23 9 -43 -2 -19 0 -44 5 -56 5 -15 4 -23 -3
-23 -8 0 -7 -5 1 -15 10 -12 10 -15 -1 -15 -9 0 -10 -3 -3 -8 10 -7 16 -65 18
-175 0 -26 3 -47 6 -47 5 0 10 -49 13 -127 1 -13 5 -23 10 -23 5 0 4 -6 -2
-14 -7 -9 -8 -15 -2 -18 5 -1 11 -28 13 -58 2 -30 5 -57 8 -60 3 -3 11 -32 18
-64 9 -48 9 -62 -1 -68 -9 -6 -8 -8 3 -8 9 0 16 -8 17 -17 1 -19 10 -75 13
-83 1 -3 2 -13 1 -22 -1 -10 3 -18 10 -18 8 0 8 -5 -2 -17 -7 -10 -9 -14 -4
-10 5 5 14 -8 20 -30 8 -27 8 -40 1 -45 -7 -5 -7 -8 2 -8 6 0 12 -7 12 -15 0
-8 4 -15 8 -15 4 0 9 -17 10 -37 2 -21 8 -40 14 -44 7 -4 6 -8 -3 -12 -11 -4
-11 -6 -1 -6 7 -1 11 -5 7 -10 -3 -5 0 -15 7 -23 7 -7 14 -22 16 -33 2 -11 7
-31 12 -45 5 -14 10 -34 12 -45 2 -11 7 -23 12 -27 6 -4 4 -13 -4 -23 -7 -9
-9 -15 -4 -14 27 5 36 -1 24 -16 -7 -8 -8 -15 -4 -15 5 0 15 -14 23 -30 24
-55 49 -130 44 -130 -3 0 0 -7 7 -15 6 -8 8 -20 4 -27 -4 -7 -3 -10 1 -5 5 4
14 -5 20 -20 9 -20 9 -30 1 -35 -7 -5 -4 -8 7 -8 10 0 16 -4 13 -9 -4 -5 -2
-11 3 -13 5 -1 11 -12 13 -23 1 -11 5 -22 8 -25 25 -25 40 -88 18 -74 -7 4 -8
3 -4 -5 4 -6 11 -9 16 -6 12 8 53 -73 44 -87 -4 -7 -3 -8 4 -4 11 6 16 -6 13
-26 0 -5 3 -8 9 -8 5 0 10 -7 10 -16 0 -8 7 -22 16 -31 8 -9 13 -22 10 -29 -3
-8 4 -18 14 -24 11 -6 20 -17 20 -25 0 -7 4 -15 9 -17 5 -1 11 -12 13 -23 1
-11 13 -30 26 -43 26 -27 29 -39 5 -22 -10 7 -6 1 9 -13 19 -17 26 -32 21 -43
-4 -12 -3 -15 5 -10 7 4 12 1 12 -8 0 -8 7 -19 15 -24 9 -4 17 -18 18 -29 0
-12 4 -20 8 -18 6 4 32 -19 41 -36 2 -3 -3 -13 -10 -22 -10 -12 -10 -17 -1
-23 8 -4 9 -3 5 4 -4 7 -3 12 2 12 12 0 42 -34 42 -48 0 -7 5 -12 10 -12 6 0
10 -9 10 -21 0 -13 4 -18 12 -13 6 4 8 3 4 -4 -3 -6 0 -14 7 -19 7 -4 29 -30
48 -58 18 -27 37 -51 42 -53 4 -2 7 -10 7 -18 0 -8 5 -14 11 -14 6 0 9 -7 6
-14 -4 -10 -1 -13 7 -10 8 3 19 -7 27 -25 8 -17 17 -31 21 -31 5 0 8 -8 8 -17
0 -9 3 -14 6 -10 7 7 54 -46 54 -62 0 -6 7 -11 17 -11 9 0 14 -3 10 -6 -3 -4
12 -25 33 -48 37 -38 53 -65 30 -51 -5 3 -10 1 -10 -5 0 -7 7 -9 16 -6 15 6
22 0 102 -86 41 -46 53 -66 30 -52 -7 4 -8 3 -4 -5 4 -6 12 -9 17 -6 13 9 42
-23 33 -36 -4 -8 -3 -9 4 -5 7 4 12 2 12 -3 0 -6 7 -11 15 -11 10 0 14 -7 12
-22 -2 -13 -2 -17 0 -10 8 22 25 13 18 -10 -4 -16 -4 -19 3 -9 12 17 32 6 32
-17 0 -15 2 -15 11 -2 8 12 9 10 7 -9 -2 -15 3 -26 12 -28 13 -4 13 -3 0 6 -8
6 -10 11 -5 11 19 -1 45 -27 45 -46 0 -16 2 -17 10 -4 8 12 10 11 10 -7 0 -13
5 -23 11 -23 5 0 7 5 3 12 -4 7 -3 8 5 4 6 -4 9 -12 6 -17 -4 -5 1 -9 10 -9
11 0 15 -5 12 -14 -4 -10 0 -14 14 -11 22 4 23 2 8 -28 -10 -21 -10 -21 5 -3
20 25 31 15 16 -16 -11 -22 -10 -22 4 -4 16 19 16 19 41 -4 13 -12 22 -27 19
-32 -3 -5 -2 -8 3 -7 20 3 34 -2 28 -11 -3 -5 3 -10 14 -10 12 0 21 -4 21 -9
0 -5 9 -13 20 -16 11 -4 20 -15 20 -26 0 -11 -4 -18 -9 -15 -11 7 -8 -20 3
-31 4 -4 6 -1 4 7 -2 8 3 14 10 12 8 -1 11 2 7 8 -3 5 -3 10 1 10 8 0 70 -45
92 -67 7 -7 17 -13 22 -13 5 0 12 -9 15 -20 3 -11 11 -20 16 -20 6 0 7 6 4 13
-4 6 1 3 9 -7 9 -11 16 -16 16 -11 0 5 9 -1 19 -12 11 -12 26 -23 33 -26 10
-4 8 -10 -6 -21 -11 -9 -15 -16 -9 -16 7 0 15 5 18 10 4 6 11 7 17 4 7 -5 8
-2 4 7 -4 8 -1 6 7 -3 8 -10 20 -18 26 -18 8 0 10 -9 7 -22 -3 -13 -3 -17 0
-10 3 6 13 12 21 12 11 0 14 -6 10 -23 -6 -21 -6 -21 8 -3 8 11 15 14 15 8 0
-7 6 -11 13 -10 6 2 11 -3 9 -9 -1 -7 7 -13 19 -13 11 0 17 -4 14 -10 -3 -6 1
-7 9 -4 9 3 16 2 16 -4 0 -13 -29 -24 -43 -16 -9 5 -9 4 -1 -5 9 -10 17 -10
34 -1 25 13 30 10 33 -17 1 -15 6 -19 22 -14 17 4 18 6 3 9 -10 2 -18 8 -18
13 0 15 70 -24 76 -43 3 -10 10 -18 15 -18 6 0 7 -5 4 -10 -3 -6 -1 -10 4 -10
14 0 14 13 -1 28 -8 8 -8 12 -1 12 6 0 14 -7 17 -16 3 -8 10 -12 16 -9 5 3 10
2 10 -4 0 -5 15 -15 34 -21 19 -6 45 -21 58 -33 14 -13 30 -21 36 -19 7 2 12
-2 12 -8 0 -7 7 -10 16 -6 11 4 15 2 11 -8 -3 -7 0 -13 6 -13 34 1 48 -4 41
-14 -4 -8 0 -9 15 -4 15 4 23 1 27 -10 4 -9 13 -14 20 -11 8 3 14 1 14 -5 0
-6 4 -8 8 -5 5 3 15 -4 22 -15 15 -20 36 -27 25 -8 -4 5 25 -6 64 -26 39 -19
71 -32 71 -28 0 5 5 1 10 -7 5 -8 7 -24 4 -35 -4 -18 -4 -18 6 -2 6 9 8 23 4
30 -6 9 -5 9 8 0 8 -7 19 -9 23 -5 5 4 4 1 0 -7 -6 -11 -4 -13 8 -8 9 3 19 2
22 -4 4 -5 10 -7 15 -4 4 3 13 -1 19 -9 7 -8 21 -12 31 -9 11 3 20 0 20 -6 0
-5 -8 -8 -17 -5 -13 4 -15 3 -5 -4 7 -5 24 -7 38 -4 14 2 24 0 24 -8 0 -7 8
-9 21 -5 12 4 19 3 16 -2 -3 -5 -2 -15 4 -23 7 -12 9 -11 9 4 0 16 3 17 12 8
7 -7 23 -12 36 -12 20 0 23 -4 19 -22 -5 -20 -5 -21 7 -6 8 11 17 14 26 8 8
-5 18 -6 22 -4 4 3 8 1 8 -5 0 -5 -6 -12 -12 -14 -10 -4 -10 -6 0 -6 7 -1 15
6 19 15 4 12 8 13 14 3 4 -8 1 -18 -9 -27 -10 -8 -5 -7 11 2 15 9 33 13 40 9
6 -4 20 -8 30 -8 10 -1 22 -6 25 -11 4 -5 16 -10 27 -9 11 0 24 -10 30 -22 5
-13 13 -23 18 -23 4 0 3 9 -3 20 -6 11 -7 20 -2 20 5 0 14 -10 21 -22 11 -23
11 -23 5 2 -3 14 -2 21 3 15 8 -10 15 -12 55 -19 12 -1 24 -9 26 -16 3 -7 0
-10 -7 -6 -6 4 -11 3 -11 -3 0 -5 9 -9 19 -8 11 0 17 5 15 9 -3 4 6 8 20 8 16
0 26 -6 26 -15 0 -18 12 -19 28 -3 9 9 12 8 12 -5 0 -9 4 -17 10 -17 5 0 8 6
6 12 -1 7 -1 10 1 6 2 -4 11 -4 18 -2 8 3 20 2 27 -2 6 -4 24 -9 38 -11 30 -4
65 -11 65 -13 0 -2 46 -9 78 -11 25 -2 32 -10 28 -32 -1 -5 4 -5 10 -1 9 5 10
2 6 -9 -3 -9 -3 -19 2 -21 11 -7 10 26 0 40 -6 8 0 11 21 10 17 -1 30 -6 30
-14 0 -7 5 -10 10 -7 6 4 7 12 3 18 -5 9 -3 9 8 0 8 -7 25 -10 37 -6 24 6 29
-6 10 -27 -7 -7 -2 -6 12 3 32 22 39 21 51 -5 9 -21 9 -21 6 5 -4 24 -2 26 12
14 9 -7 31 -12 49 -11 22 2 30 -1 25 -9 -4 -7 2 -5 12 3 10 8 16 10 12 3 -12
-19 34 -28 48 -9 11 14 13 13 24 -7 6 -12 10 -15 7 -6 -4 14 2 16 31 15 19 -2
39 -9 43 -17 7 -11 10 -10 16 4 4 11 11 14 18 9 6 -4 21 -7 34 -6 14 1 21 -3
18 -11 -3 -8 4 -10 22 -7 24 5 25 6 7 13 -19 7 -19 8 2 8 29 1 38 -15 16 -28
-10 -6 -13 -11 -6 -11 6 0 15 5 18 10 4 6 11 8 16 5 5 -3 6 1 3 9 -3 9 -1 16
5 16 6 0 11 -4 11 -10 0 -5 5 -10 11 -10 5 0 8 4 5 8 -7 11 60 9 71 -2 4 -5 3
-7 -3 -3 -6 3 -11 0 -11 -8 0 -11 4 -12 14 -4 12 11 17 5 14 -14 -1 -5 3 -6 9
-2 8 5 7 11 -1 21 -6 8 -8 18 -4 22 4 4 10 1 12 -6 3 -6 9 -12 14 -12 6 0 8 4
5 8 -7 11 60 9 71 -2 5 -5 2 -6 -6 -1 -10 6 -12 4 -7 -4 6 -8 1 -10 -17 -6
-14 4 -27 2 -31 -3 -5 -8 47 -10 64 -2 3 1 8 2 12 1 4 0 5 6 2 14 -7 18 12 20
20 3 5 -11 7 -11 12 0 9 19 27 14 20 -5 -6 -16 -6 -16 12 0 11 10 28 15 45 12
17 -4 27 -1 27 7 0 6 11 1 24 -11 14 -13 31 -21 38 -18 9 4 8 6 -3 6 -20 1
-33 28 -13 28 7 0 10 -5 7 -11 -4 -6 0 -5 8 1 9 7 26 10 39 8 13 -2 29 0 36 6
8 7 14 7 19 -1 3 -5 -4 -14 -17 -19 -16 -7 -18 -10 -6 -10 9 -1 23 7 30 17 13
17 38 28 38 16 0 -3 -10 -15 -22 -25 l-23 -20 28 17 c15 9 27 20 27 24 0 12
54 9 62 -4 5 -7 8 -4 8 7 0 11 5 15 11 11 6 -3 15 0 20 7 7 11 9 11 9 1 0 -10
5 -10 20 -2 16 9 20 8 20 -5 0 -9 5 -13 10 -10 6 4 8 10 5 14 -2 5 6 8 18 7
13 -1 22 -8 21 -17 -1 -9 5 -16 12 -16 9 0 10 5 3 18 -5 10 -9 20 -9 22 0 8
53 -2 62 -11 13 -13 38 -4 38 14 0 21 20 17 21 -3 0 -15 2 -14 9 3 8 21 50 40
50 23 0 -8 -13 -12 -30 -11 -3 0 -6 -8 -7 -17 -1 -15 4 -13 30 10 18 16 37 27
44 25 6 -3 14 0 17 7 3 7 3 1 0 -13 l-5 -25 15 25 c9 14 15 21 16 17 0 -4 9
-3 20 3 11 6 20 7 20 2 0 -11 51 -35 58 -27 3 3 1 5 -4 5 -6 0 -19 7 -30 16
-15 12 -16 15 -2 10 9 -3 18 0 20 6 3 7 12 7 28 -2 23 -12 24 -12 11 4 -12 14
-12 17 -1 14 20 -4 39 -22 34 -30 -6 -9 37 -1 45 8 3 4 -2 4 -11 1 -9 -3 -22
1 -30 10 -11 14 -11 15 2 11 8 -2 21 2 28 9 9 9 18 10 26 5 14 -12 47 -12 40
0 -3 5 -11 5 -17 2 -9 -5 -9 -3 0 6 10 11 15 11 29 -1 10 -8 15 -9 11 -3 -4 7
0 14 7 17 9 4 19 -4 25 -21 11 -26 11 -25 6 8 l-5 35 20 -24 c11 -13 20 -19
20 -14 0 5 -5 14 -11 20 -7 7 -7 13 -1 17 6 3 13 -3 17 -14 3 -11 11 -20 17
-20 7 0 6 6 -2 15 -10 12 -7 17 16 26 44 17 72 20 79 9 4 -6 15 -5 30 2 13 6
22 15 19 19 -8 14 20 11 36 -3 12 -11 12 -10 2 3 -12 16 -7 29 10 29 5 0 6 -5
2 -12 -5 -7 -3 -8 6 -3 10 6 12 3 7 -11 -7 -18 -6 -18 6 -2 8 10 17 15 20 11
4 -3 11 6 16 21 6 14 13 26 16 26 4 0 4 -4 1 -9 -3 -5 1 -11 9 -14 10 -4 12
-1 8 11 -6 15 -5 15 10 3 15 -12 17 -12 11 3 -4 12 -2 15 9 11 8 -4 17 1 21
10 3 9 10 14 15 10 5 -3 12 -1 15 4 3 5 16 7 28 3 14 -3 19 -2 14 6 -4 7 -5
12 -1 12 3 0 10 -10 16 -22 8 -20 9 -20 4 6 l-6 29 25 -17 c14 -9 26 -12 26
-7 0 5 -6 11 -12 14 -7 2 -9 8 -5 13 5 5 17 -2 28 -16 16 -20 18 -21 10 -4 -8
17 -6 25 9 39 11 10 20 15 20 12 0 -4 20 2 44 13 24 10 47 16 50 13 3 -4 6 -1
6 5 0 6 7 9 17 5 11 -4 14 -3 9 5 -5 8 0 12 13 12 12 0 21 6 21 13 0 8 3 7 10
-3 8 -13 11 -13 22 -1 9 10 10 12 1 7 -8 -5 -11 -2 -7 7 6 16 20 17 41 4 8 -5
11 -3 8 5 -4 9 9 20 33 31 47 21 53 21 46 2 -4 -8 -11 -12 -17 -8 -5 3 -7 1
-4 -5 8 -12 32 -10 44 3 4 4 2 5 -5 1 -8 -5 -11 -1 -9 14 3 21 27 51 27 34 0
-5 5 -2 11 6 9 13 10 13 6 0 -2 -8 -9 -14 -15 -13 -5 1 -8 -7 -5 -17 3 -11 9
-20 14 -20 5 0 5 7 2 17 -4 11 -3 14 6 9 6 -4 11 -4 10 1 -4 20 2 43 10 43 6
0 8 -9 6 -21 -3 -17 -2 -19 10 -9 8 7 12 17 9 22 -8 12 26 49 37 42 5 -3 21 4
35 15 15 12 33 21 40 21 8 0 14 5 14 10 0 6 5 10 11 10 6 0 24 9 39 20 21 15
30 17 33 8 3 -10 8 -10 18 1 9 9 9 11 2 7 -7 -4 -13 -3 -13 2 0 16 30 23 36 8
3 -8 13 -17 21 -20 12 -5 13 -4 5 7 -7 8 -8 18 -4 22 4 5 1 5 -5 1 -8 -4 -13
-1 -13 8 0 17 12 21 24 9 10 -11 37 -12 30 -2 -3 5 -10 7 -15 4 -5 -4 -9 1 -9
10 0 9 4 14 8 11 5 -3 19 4 30 15 12 11 22 17 22 14 0 -3 10 3 22 14 20 19 45
20 33 1 -3 -5 -1 -11 4 -15 6 -3 8 5 5 19 -5 28 28 58 54 49 10 -4 13 -2 8 5
-3 6 -2 13 4 17 6 3 13 0 16 -9 3 -8 13 -17 22 -21 14 -5 14 -4 -1 13 -22 25
-21 39 3 47 11 3 20 10 20 14 0 4 18 17 39 29 21 12 42 29 45 38 4 9 9 14 12
11 3 -3 14 3 25 14 16 16 23 17 40 8 11 -6 23 -8 27 -5 3 3 0 6 -7 6 -7 0 -9
5 -5 12 4 7 3 8 -4 4 -17 -10 -15 3 3 20 8 9 15 12 15 9 0 -4 9 3 20 16 10 13
19 21 20 16 0 -4 14 7 30 25 17 18 28 25 24 16 -6 -17 18 -20 33 -3 4 4 3 5
-4 1 -8 -4 -11 1 -10 14 1 11 4 20 8 20 4 0 20 13 35 29 15 16 33 27 40 24 6
-2 15 1 19 6 3 6 10 9 15 6 5 -3 11 -1 14 4 7 11 -13 9 -31 -2 -9 -6 -11 -3
-7 7 3 9 13 16 21 16 9 0 11 5 7 13 -5 8 -2 8 9 -2 9 -7 17 -10 17 -5 0 5 5 2
11 -6 9 -13 10 -13 6 0 -2 8 -10 14 -16 12 -6 -1 -11 3 -11 9 0 7 9 9 21 6 16
-4 19 -3 11 5 -8 8 -4 18 15 36 15 14 29 20 31 14 2 -6 11 -3 23 9 25 25 25
37 -1 14 -11 -10 -20 -15 -20 -11 0 9 31 41 42 42 4 1 13 2 18 3 6 0 10 6 10
12 0 5 -6 7 -12 3 -7 -4 -4 3 7 17 11 13 20 25 21 27 1 2 4 -4 8 -13 4 -11 2
-14 -6 -9 -7 4 -8 3 -4 -5 10 -16 26 -4 20 14 -6 16 20 48 30 38 3 -4 6 1 6 9
0 8 25 42 55 74 30 33 55 62 55 67 0 4 4 7 10 7 5 0 7 -6 4 -14 -7 -18 12 -30
22 -15 4 7 3 9 -3 6 -5 -4 -10 6 -10 23 0 16 4 27 8 25 4 -3 10 2 13 11 3 9
11 12 18 8 8 -5 9 -2 5 9 -8 22 2 22 19 -1 13 -16 14 -16 8 2 -8 22 13 38 41
30 18 -4 18 -4 3 6 -13 8 -24 8 -37 0 -31 -16 -31 -12 -1 19 16 16 37 28 46
27 9 0 19 5 21 12 3 6 0 12 -7 12 -6 0 -8 -4 -5 -10 3 -5 1 -10 -4 -10 -18 0
-12 25 8 40 11 7 17 18 14 24 -3 6 -3 8 2 4 5 -5 13 2 20 15 6 12 19 21 28 21
15 -2 16 1 5 14 -11 13 -10 15 3 10 9 -3 22 -2 30 4 11 8 10 9 -3 4 -10 -3
-18 -2 -18 2 0 14 51 82 59 78 4 -3 13 5 21 17 12 20 12 21 -3 8 -11 -9 -17
-10 -17 -2 0 6 4 11 8 11 5 0 17 7 28 16 10 8 13 12 6 9 -11 -6 -11 -3 -1 13
7 12 17 18 23 15 5 -4 7 1 3 11 -5 11 -3 15 5 10 7 -5 9 -2 6 8 -4 8 4 26 17
40 13 14 21 28 18 32 -3 3 2 8 11 12 9 3 13 11 9 18 -4 6 2 4 12 -4 17 -14 18
-14 5 10 -12 22 -12 24 2 12 13 -10 15 -9 10 13 -3 19 0 25 14 25 16 0 17 2 4
11 -12 8 -12 9 5 7 24 -3 45 9 45 25 0 6 -6 3 -13 -8 -10 -12 -16 -14 -21 -7
-4 7 -3 12 3 12 6 0 7 7 4 17 -4 11 -3 14 5 9 7 -4 14 3 18 19 3 14 10 25 16
25 5 0 6 5 3 10 -3 5 -1 10 4 10 6 0 10 3 9 8 -1 4 9 27 22 52 13 25 23 49 22
54 -2 5 4 6 13 2 10 -4 14 -2 9 6 -4 6 1 17 11 25 12 8 14 13 5 13 -10 0 -9 4
3 17 15 18 17 22 17 43 0 6 8 10 18 10 13 0 14 2 4 9 -10 6 -10 10 2 21 9 7
13 16 10 21 -3 5 0 9 6 9 6 0 8 5 5 10 -3 6 -1 10 4 10 6 0 10 6 9 13 -2 6 3
11 11 9 11 -2 12 0 2 11 -9 12 -8 16 4 21 9 3 13 10 10 16 -3 5 -1 10 4 10 6
0 11 -5 11 -12 0 -6 3 -8 6 -5 4 4 1 13 -5 21 -10 12 -9 20 3 39 9 13 13 27 9
32 -5 4 -2 4 6 0 11 -6 13 -4 8 10 -6 14 -3 16 15 12 22 -6 22 -5 4 8 -12 9
-15 15 -7 15 8 0 11 6 7 15 -3 10 1 15 12 15 13 0 14 2 3 9 -11 7 -11 12 2 32
8 13 20 41 27 62 6 20 15 35 20 32 4 -3 6 5 2 17 -3 14 -2 19 6 14 8 -5 11 0
8 16 -2 13 3 35 10 50 8 15 14 30 14 33 -1 21 2 25 16 25 9 0 12 -5 8 -12 -4
-7 -3 -9 1 -5 14 12 14 36 1 31 -7 -3 -13 2 -13 11 0 9 6 14 14 11 7 -3 13 -1
13 3 0 5 -4 11 -8 13 -5 1 -5 18 0 36 5 18 13 30 18 27 6 -4 10 -1 10 4 0 6
-5 11 -11 11 -8 0 -8 4 -2 13 11 13 27 67 25 80 -1 4 6 7 15 7 12 0 14 3 6 8
-6 4 -9 19 -6 34 3 15 9 25 14 22 5 -3 9 0 9 5 0 6 -6 11 -12 11 -8 0 -9 3 -3
8 10 7 16 23 18 54 1 21 8 23 24 7 8 -8 13 -8 18 0 4 7 1 10 -7 9 -7 -2 -12 3
-10 10 1 8 -2 11 -8 7 -5 -3 -10 -2 -10 4 0 5 6 12 13 14 8 4 8 6 0 6 -6 1 -9
10 -6 21 5 19 6 20 20 3 11 -13 10 -10 -1 10 -11 17 -12 27 -5 27 6 0 9 7 6
15 -4 8 -2 17 4 20 5 4 7 11 4 16 -12 18 5 48 23 42 13 -4 12 -2 -3 10 -13 11
-16 19 -10 24 6 5 11 17 11 28 2 67 4 76 17 69 9 -6 9 -5 0 7 -15 18 -1 44 18
35 8 -4 6 -1 -3 7 -19 15 -24 47 -8 47 5 0 7 7 3 16 -3 9 0 20 8 25 8 5 10 9
4 9 -14 0 -11 63 3 68 7 2 12 8 12 13 0 6 -4 8 -9 5 -5 -3 -8 5 -7 19 0 14 6
23 11 21 6 -2 11 4 11 14 0 10 -4 16 -9 13 -4 -2 -6 17 -3 44 3 26 5 48 6 48
0 0 3 45 6 100 3 55 11 106 17 114 9 12 9 13 0 7 -8 -4 -13 -2 -13 5 0 6 8 9
20 6 11 -3 18 -1 14 4 -3 5 -12 9 -19 9 -17 0 -17 51 0 62 6 5 5 8 -4 8 -11 0
-11 3 0 17 12 15 12 16 -1 8 -13 -8 -13 -7 0 10 10 13 11 16 2 11 -10 -6 -13
-2 -10 15 2 13 8 27 13 31 6 5 5 8 -2 8 -7 0 -13 5 -13 11 0 5 6 7 13 3 8 -5
8 -2 -2 9 -11 14 -11 20 0 34 10 11 10 14 1 9 -6 -4 -12 -2 -12 3 0 6 6 11 13
11 9 0 9 2 -1 9 -16 10 -12 86 5 86 6 0 14 3 18 7 4 3 -1 5 -12 4 -25 -5 -38
5 -22 15 10 6 11 9 2 9 -7 0 -13 5 -13 11 0 5 5 7 11 3 8 -5 8 -1 0 14 -14 27
-15 54 -1 32 6 -9 10 -10 10 -3 0 6 -5 15 -10 18 -6 4 -9 24 -7 46 2 21 0 39
-5 39 -4 0 -8 5 -8 11 0 5 4 8 8 5 5 -3 9 1 9 9 0 8 -5 11 -10 8 -6 -4 -8 0
-4 9 3 9 0 21 -6 27 -8 8 -8 11 0 11 8 0 9 9 3 30 -5 17 -6 30 -3 30 3 0 1 6
-4 13 -14 19 -10 72 5 69 8 -1 11 2 7 8 -3 6 -11 8 -16 5 -5 -4 -9 -3 -10 2
-7 71 -7 72 9 67 12 -4 10 -1 -3 8 -19 12 -27 43 -29 106 0 12 -3 22 -6 22 -4
0 -7 6 -7 13 -1 28 -12 94 -21 123 -7 21 -7 35 0 42 6 6 6 12 -3 17 -8 6 -10
4 -4 -6 5 -8 4 -10 0 -6 -10 8 -15 28 -17 70 0 15 -6 27 -11 27 -6 0 -2 10 9
22 15 19 16 20 2 9 -16 -12 -18 -11 -19 5 -1 11 -1 25 0 32 1 6 -2 12 -7 12
-5 0 -12 9 -15 20 -3 13 -1 18 6 13 7 -4 6 1 -2 10 -7 10 -15 32 -17 49 -2 18
-7 34 -12 37 -4 3 -7 11 -7 16 -1 6 -7 30 -14 55 -8 25 -14 51 -14 58 0 6 -4
12 -8 12 -3 0 -9 9 -12 20 -3 13 -1 18 6 14 7 -3 4 1 -5 9 -13 10 -14 17 -6
25 8 8 7 13 -5 18 -9 3 -15 10 -12 14 3 5 -2 15 -10 23 -11 12 -12 17 -2 20 9
4 9 6 -1 6 -7 1 -10 6 -7 11 3 6 1 10 -4 10 -6 0 -11 9 -11 19 0 11 -4 23 -10
26 -15 9 -13 48 3 39 7 -4 9 -3 4 2 -5 5 -13 9 -18 9 -6 0 -21 26 -33 58 -13
31 -22 57 -21 57 2 0 -7 20 -21 46 -13 25 -24 52 -24 60 0 7 -5 14 -11 14 -6
0 -9 9 -6 20 3 11 2 18 -3 15 -14 -8 -21 28 -8 38 10 6 9 8 -3 4 -19 -6 -43
37 -33 56 4 7 4 9 -1 5 -11 -10 -56 81 -48 96 3 6 3 8 -2 4 -10 -10 -48 50
-40 63 4 5 0 9 -8 9 -8 0 -18 7 -21 16 -4 10 -2 13 7 9 6 -4 4 0 -5 7 -9 8
-18 20 -20 28 -2 7 -11 22 -21 32 -10 11 -17 24 -15 30 2 6 -9 24 -24 40 -15
17 -25 34 -22 39 3 5 1 9 -4 9 -5 0 -15 12 -23 28 -8 15 -22 36 -32 46 -9 11
-17 25 -17 32 0 6 -7 15 -16 18 -10 4 -14 14 -11 26 3 11 2 19 -2 18 -19 -2
-29 4 -34 22 -3 11 -6 24 -7 28 -2 4 -11 13 -22 20 -10 7 -16 18 -13 23 4 5
-2 9 -11 9 -10 0 -15 3 -11 6 6 6 -1 17 -35 55 -10 10 -18 24 -18 29 0 6 -5
10 -11 10 -5 0 -7 5 -4 10 3 6 -2 10 -11 10 -10 0 -14 3 -11 6 4 4 -3 15 -15
25 -11 11 -17 19 -12 19 5 0 -2 7 -14 16 -17 12 -20 19 -12 29 8 10 8 15 -1
21 -8 4 -9 3 -5 -4 4 -7 1 -12 -6 -12 -16 0 -41 37 -33 50 3 6 -1 7 -9 4 -9
-3 -16 -2 -16 3 0 6 -13 24 -29 41 -16 16 -27 33 -24 36 4 3 -1 6 -10 6 -9 0
-17 4 -17 8 0 5 -24 34 -54 65 -30 30 -51 58 -48 61 3 3 1 6 -5 6 -5 0 -62 51
-125 113 -139 136 -174 167 -189 167 -6 0 -8 7 -5 16 3 8 2 12 -4 9 -5 -3 -17
3 -27 15 -10 11 -21 20 -26 20 -4 0 -18 10 -31 23 -13 12 -38 33 -56 47 -17
14 -40 32 -50 40 -10 8 -28 22 -40 30 -12 8 -28 20 -34 25 -30 27 -86 65 -94
65 -6 0 -12 4 -14 8 -4 12 -106 82 -118 82 -5 0 -10 3 -10 8 0 4 -20 18 -45
32 -25 14 -45 28 -45 33 0 4 -4 5 -10 2 -5 -3 -10 -1 -10 5 0 6 -4 9 -9 6 -5
-4 -11 -3 -13 2 -4 9 -90 61 -130 79 -16 7 -28 16 -28 22 0 5 -10 11 -22 13
-13 2 -22 9 -21 15 1 6 -6 9 -17 6 -11 -3 -20 0 -20 6 0 6 -9 11 -20 11 -11 0
-20 5 -20 10 0 6 -3 9 -7 8 -10 -2 -146 64 -154 75 -3 5 -9 8 -13 7 -13 -4
-66 22 -66 32 0 5 -3 7 -8 4 -4 -2 -25 4 -47 14 -22 10 -43 16 -47 14 -5 -3
-8 0 -8 5 0 6 -9 11 -21 11 -13 0 -18 4 -13 12 4 7 3 8 -4 4 -6 -4 -22 -1 -34
6 -13 6 -30 13 -38 14 -8 2 -16 8 -18 14 -2 5 -7 8 -11 5 -8 -4 -78 18 -146
46 -35 14 -30 13 -75 23 -19 5 -39 11 -45 15 -5 3 -12 6 -15 7 -17 3 -67 17
-80 21 -27 10 -34 12 -93 25 -32 7 -56 16 -52 19 3 4 -2 6 -12 6 -57 0 -74 4
-67 15 4 6 3 8 -4 4 -6 -3 -42 0 -79 9 -37 8 -79 16 -93 19 -14 2 -36 7 -50
10 -28 6 -77 14 -135 22 -22 3 -43 11 -47 17 -6 9 -8 8 -8 -2 0 -8 -6 -11 -16
-7 -9 3 -46 9 -83 12 -36 4 -72 11 -80 18 -12 9 -13 8 -6 -3 6 -10 4 -12 -5
-6 -13 8 -27 9 -172 15 -42 2 -65 7 -61 13 4 6 1 7 -6 2 -11 -6 -103 -7 -279
-1 -24 0 -44 0 -45 -1z m1633 -9146 c0 -8 -7 -14 -15 -14 -25 0 -17 17 13 26
1 1 2 -5 2 -12z m-120 -47 c-8 -5 -17 -7 -19 -4 -3 3 1 9 9 14 8 5 17 7 19 4
3 -3 -1 -9 -9 -14z m-662 -152 c-2 -5 -8 -9 -13 -9 -5 0 -11 4 -13 9 -1 5 4 9
13 9 9 0 14 -4 13 -9z m-1158 -44 c0 -2 -7 -4 -15 -4 -8 0 -15 4 -15 10 0 5 7
7 15 4 8 -4 15 -8 15 -10z"/>
<path d="M9453 7069 c-2 -23 3 -25 10 -4 4 8 3 16 -1 19 -4 3 -9 -4 -9 -15z"/>
<path d="M9546 6838 c3 -5 10 -6 15 -3 13 9 11 12 -6 12 -8 0 -12 -4 -9 -9z"/>
<path d="M9750 6141 c0 -6 4 -13 10 -16 6 -3 7 1 4 9 -7 18 -14 21 -14 7z"/>
<path d="M9850 5420 c0 -5 5 -10 11 -10 5 0 7 5 4 10 -3 6 -8 10 -11 10 -2 0
-4 -4 -4 -10z"/>
<path d="M9846 5242 c-3 -5 1 -9 9 -9 8 0 12 4 9 9 -3 4 -7 8 -9 8 -2 0 -6 -4
-9 -8z"/>
<path d="M9873 5155 c0 -8 4 -12 9 -9 5 3 6 10 3 15 -9 13 -12 11 -12 -6z"/>
<path d="M9875 5091 c-3 -5 -2 -12 3 -15 5 -3 9 1 9 9 0 17 -3 19 -12 6z"/>
<path d="M9859 4953 c-13 -17 -13 -17 6 -3 11 8 22 16 24 17 2 2 0 3 -6 3 -6
0 -17 -8 -24 -17z"/>
<path d="M9840 4840 c-12 -7 -12 -11 -2 -20 6 -5 10 -7 7 -4 -3 4 0 13 6 21
13 15 10 16 -11 3z"/>
<path d="M9820 4719 c0 -5 5 -7 10 -4 6 3 10 8 10 11 0 2 -4 4 -10 4 -5 0 -10
-5 -10 -11z"/>
<path d="M9815 4480 c3 -5 8 -10 11 -10 2 0 4 5 4 10 0 6 -5 10 -11 10 -5 0
-7 -4 -4 -10z"/>
<path d="M9774 4342 c4 -3 14 -7 22 -8 9 -1 13 0 10 4 -4 3 -14 7 -22 8 -9 1
-13 0 -10 -4z"/>
<path d="M9796 4262 c-3 -5 1 -9 9 -9 8 0 12 4 9 9 -3 4 -7 8 -9 8 -2 0 -6 -4
-9 -8z"/>
<path d="M9722 4018 c-7 -7 -12 -17 -12 -22 0 -6 5 -3 11 7 6 9 15 14 21 11 7
-4 8 -2 4 4 -9 15 -9 15 -24 0z"/>
<path d="M9650 3826 c0 -2 7 -7 16 -10 8 -3 12 -2 9 4 -6 10 -25 14 -25 6z"/>
<path d="M9648 3779 c-20 -11 -24 -29 -6 -29 6 0 8 3 5 7 -4 3 1 12 11 19 20
16 14 18 -10 3z"/>
<path d="M9695 3760 c-3 -5 -1 -10 4 -10 6 0 11 5 11 10 0 6 -2 10 -4 10 -3 0
-8 -4 -11 -10z"/>
<path d="M636 3698 c3 -5 10 -6 15 -3 13 9 11 12 -6 12 -8 0 -12 -4 -9 -9z"/>
<path d="M9588 3603 c7 -3 16 -2 19 1 4 3 -2 6 -13 5 -11 0 -14 -3 -6 -6z"/>
<path d="M9566 3482 c-3 -5 1 -9 9 -9 8 0 12 4 9 9 -3 4 -7 8 -9 8 -2 0 -6 -4
-9 -8z"/>
<path d="M9535 3460 c3 -5 8 -10 11 -10 2 0 4 5 4 10 0 6 -5 10 -11 10 -5 0
-7 -4 -4 -10z"/>
<path d="M9505 3420 c-3 -6 1 -7 9 -4 18 7 21 14 7 14 -6 0 -13 -4 -16 -10z"/>
<path d="M9519 3368 c-5 -18 -6 -38 -1 -34 7 8 12 36 6 36 -2 0 -4 -1 -5 -2z"/>
<path d="M9473 3295 c-3 -9 -3 -18 -1 -21 3 -3 8 4 11 16 6 23 -1 27 -10 5z"/>
<path d="M9397 3135 c-4 -8 -3 -16 1 -19 4 -3 9 4 9 15 2 23 -3 25 -10 4z"/>
<path d="M9371 3107 c2 -1 13 -9 24 -17 19 -14 19 -14 6 3 -7 9 -18 17 -24 17
-6 0 -8 -1 -6 -3z"/>
<path d="M9350 3060 c0 -5 5 -10 10 -10 6 0 10 5 10 10 0 6 -4 10 -10 10 -5 0
-10 -4 -10 -10z"/>
<path d="M9335 3020 c3 -5 8 -10 11 -10 2 0 4 5 4 10 0 6 -5 10 -11 10 -5 0
-7 -4 -4 -10z"/>
<path d="M9308 2944 c6 -3 10 -10 7 -14 -3 -5 -1 -12 5 -15 6 -4 9 -1 8 7 -2
7 4 12 12 10 8 -2 12 0 7 4 -4 4 -18 9 -30 10 -12 2 -16 0 -9 -2z"/>
<path d="M9280 2933 c0 -6 8 -17 18 -24 16 -13 16 -13 2 6 -8 11 -16 22 -17
24 -2 2 -3 0 -3 -6z"/>
<path d="M970 2896 c0 -2 8 -10 18 -17 15 -13 16 -12 3 4 -13 16 -21 21 -21
13z"/>
<path d="M9260 2880 c0 -4 7 -7 15 -6 23 3 26 12 5 13 -11 1 -20 -2 -20 -7z"/>
<path d="M9251 2851 c-9 -6 -10 -11 -2 -15 6 -4 8 -13 5 -19 -4 -7 -3 -9 1 -4
7 5 16 48 11 47 -1 0 -7 -4 -15 -9z"/>
<path d="M9206 2718 c3 -5 10 -6 15 -3 13 9 11 12 -6 12 -8 0 -12 -4 -9 -9z"/>
<path d="M9150 2700 c0 -5 5 -10 10 -10 6 0 10 5 10 10 0 6 -4 10 -10 10 -5 0
-10 -4 -10 -10z"/>
<path d="M9170 2659 c0 -5 5 -7 10 -4 6 3 10 8 10 11 0 2 -4 4 -10 4 -5 0 -10
-5 -10 -11z"/>
<path d="M9110 2630 c0 -6 7 -10 15 -10 8 0 15 2 15 4 0 2 -7 6 -15 10 -8 3
-15 1 -15 -4z"/>
<path d="M1158 2623 c7 -3 16 -2 19 1 4 3 -2 6 -13 5 -11 0 -14 -3 -6 -6z"/>
<path d="M9090 2600 c0 -5 5 -10 10 -10 6 0 10 5 10 10 0 6 -4 10 -10 10 -5 0
-10 -4 -10 -10z"/>
<path d="M9064 2579 c-4 -7 -3 -9 4 -5 5 3 13 0 15 -6 4 -9 6 -10 6 -1 1 17
-16 25 -25 12z"/>
<path d="M9090 2539 c0 -5 5 -7 10 -4 6 3 10 8 10 11 0 2 -4 4 -10 4 -5 0 -10
-5 -10 -11z"/>
<path d="M9055 2519 c-11 -16 -1 -19 13 -3 7 8 8 14 3 14 -5 0 -13 -5 -16 -11z"/>
<path d="M9010 2450 c-6 -11 -8 -20 -6 -20 3 0 10 9 16 20 6 11 8 20 6 20 -3
0 -10 -9 -16 -20z"/>
<path d="M1313 2395 c0 -8 4 -12 9 -9 5 3 6 10 3 15 -9 13 -12 11 -12 -6z"/>
<path d="M8970 2402 c0 -4 11 -8 25 -8 28 0 24 8 -5 13 -11 2 -20 -1 -20 -5z"/>
<path d="M8950 2391 c0 -6 4 -13 10 -16 6 -3 7 1 4 9 -7 18 -14 21 -14 7z"/>
<path d="M1335 2340 c3 -5 8 -10 11 -10 2 0 4 5 4 10 0 6 -5 10 -11 10 -5 0
-7 -4 -4 -10z"/>
<path d="M8934 2338 c-3 -5 0 -7 8 -6 7 2 12 -4 10 -12 -2 -8 0 -11 4 -7 14
13 12 34 -3 34 -7 0 -16 -4 -19 -9z"/>
<path d="M8886 2321 c-3 -5 1 -11 9 -14 9 -4 12 -1 8 9 -6 16 -10 17 -17 5z"/>
<path d="M1390 2286 c0 -2 7 -7 16 -10 8 -3 12 -2 9 4 -6 10 -25 14 -25 6z"/>
<path d="M8870 2271 c0 -7 -5 -9 -12 -5 -7 5 -8 3 -3 -5 5 -9 10 -10 18 -2 6
6 8 14 4 18 -4 3 -7 1 -7 -6z"/>
<path d="M8890 2259 c0 -5 5 -7 10 -4 6 3 10 8 10 11 0 2 -4 4 -10 4 -5 0 -10
-5 -10 -11z"/>
<path d="M8815 2200 c3 -5 8 -10 11 -10 2 0 4 5 4 10 0 6 -5 10 -11 10 -5 0
-7 -4 -4 -10z"/>
<path d="M8730 2116 c0 -8 4 -17 9 -20 5 -4 7 3 4 14 -6 23 -13 26 -13 6z"/>
<path d="M1533 2095 c0 -8 4 -12 9 -9 5 3 6 10 3 15 -9 13 -12 11 -12 -6z"/>
<path d="M8730 2059 c0 -5 5 -7 10 -4 6 3 10 8 10 11 0 2 -4 4 -10 4 -5 0 -10
-5 -10 -11z"/>
<path d="M1556 2038 c3 -5 10 -6 15 -3 13 9 11 12 -6 12 -8 0 -12 -4 -9 -9z"/>
<path d="M8675 2040 c3 -5 8 -10 11 -10 2 0 4 5 4 10 0 6 -5 10 -11 10 -5 0
-7 -4 -4 -10z"/>
<path d="M8632 2017 c-18 -21 -18 -39 1 -42 15 -3 16 -1 6 11 -9 11 -9 17 1
29 7 8 10 15 7 15 -2 0 -9 -6 -15 -13z"/>
<path d="M1636 2007 c3 -10 9 -15 12 -12 3 3 0 11 -7 18 -10 9 -11 8 -5 -6z"/>
<path d="M8677 2013 c-10 -9 -9 -23 1 -23 5 0 9 7 9 15 0 17 -1 18 -10 8z"/>
<path d="M1653 1965 c0 -7 6 -11 14 -8 7 3 13 6 13 8 0 2 -6 5 -13 8 -8 3 -14
-1 -14 -8z"/>
<path d="M8590 1966 c0 -2 7 -7 16 -10 8 -3 12 -2 9 4 -6 10 -25 14 -25 6z"/>
<path d="M1670 1946 c0 -2 7 -7 16 -10 8 -3 12 -2 9 4 -6 10 -25 14 -25 6z"/>
<path d="M8590 1930 c-9 -6 -10 -10 -3 -10 6 0 15 5 18 10 8 12 4 12 -15 0z"/>
<path d="M8410 1760 c0 -5 5 -10 10 -10 6 0 10 5 10 10 0 6 -4 10 -10 10 -5 0
-10 -4 -10 -10z"/>
<path d="M1856 1743 c-6 -14 -5 -15 5 -6 7 7 10 15 7 18 -3 3 -9 -2 -12 -12z"/>
<path d="M1896 1699 c4 -7 44 0 44 7 0 2 -11 3 -24 2 -14 -1 -23 -5 -20 -9z"/>
<path d="M1929 1677 c6 -8 7 -18 3 -22 -4 -5 -1 -5 6 -1 10 6 10 11 1 22 -6 8
-14 14 -16 14 -3 0 0 -6 6 -13z"/>
<path d="M8278 1653 c7 -3 16 -2 19 1 4 3 -2 6 -13 5 -11 0 -14 -3 -6 -6z"/>
<path d="M8320 1640 c-9 -6 -10 -10 -3 -10 6 0 15 5 18 10 8 12 4 12 -15 0z"/>
<path d="M8236 1613 c-6 -14 -5 -15 5 -6 7 7 10 15 7 18 -3 3 -9 -2 -12 -12z"/>
<path d="M8277 1616 c-16 -13 -16 -14 0 -27 12 -10 15 -11 9 -1 -4 7 -2 19 4
27 15 18 11 19 -13 1z"/>
<path d="M2096 1557 c3 -10 9 -15 12 -12 3 3 0 11 -7 18 -10 9 -11 8 -5 -6z"/>
<path d="M8171 1558 c-1 -21 15 -32 25 -17 4 7 3 9 -4 5 -6 -3 -13 2 -15 11
-4 16 -5 16 -6 1z"/>
<path d="M8230 1559 c0 -5 5 -7 10 -4 6 3 10 8 10 11 0 2 -4 4 -10 4 -5 0 -10
-5 -10 -11z"/>
<path d="M2065 1540 c-3 -6 1 -7 9 -4 18 7 21 14 7 14 -6 0 -13 -4 -16 -10z"/>
<path d="M8125 1529 c-4 -5 -4 -13 -1 -16 3 -4 6 0 7 8 0 8 4 6 9 -6 7 -16 9
-17 9 -3 1 21 -15 32 -24 17z"/>
<path d="M2127 1499 c7 -7 15 -10 18 -7 3 3 -2 9 -12 12 -14 6 -15 5 -6 -5z"/>
<path d="M2170 1481 c0 -11 4 -22 9 -25 4 -3 6 6 3 19 -5 30 -12 33 -12 6z"/>
<path d="M8108 1493 c6 -2 10 -8 8 -12 -3 -4 4 -7 15 -7 19 0 19 1 3 13 -10 7
-23 13 -28 12 -6 0 -5 -3 2 -6z"/>
<path d="M2190 1476 c0 -2 7 -7 16 -10 8 -3 12 -2 9 4 -6 10 -25 14 -25 6z"/>
<path d="M8036 1445 c4 -8 10 -15 16 -15 5 0 6 -5 2 -12 -5 -7 -3 -8 5 -4 9 6
8 13 -5 27 -21 23 -25 24 -18 4z"/>
<path d="M2259 1423 c-5 -29 -5 -53 -1 -48 7 6 12 55 6 55 -2 0 -5 -3 -5 -7z"/>
<path d="M2280 1411 c0 -6 4 -13 10 -16 6 -3 7 1 4 9 -7 18 -14 21 -14 7z"/>
<path d="M7978 1399 c-7 -4 2 -7 20 -5 17 1 34 4 36 7 8 8 -43 6 -56 -2z"/>
<path d="M7924 1368 c-43 -32 -52 -42 -24 -27 14 7 29 12 33 11 5 -1 6 2 3 7
-3 5 1 12 10 15 13 5 15 2 11 -14 -3 -11 -1 -18 4 -14 12 7 12 31 0 38 -5 3
-22 -4 -37 -16z"/>
<path d="M2328 1363 c6 -2 10 -9 7 -14 -4 -5 1 -6 10 -2 13 5 14 7 3 14 -7 5
-17 8 -23 8 -5 0 -4 -3 3 -6z"/>
<path d="M2279 1333 c-13 -16 -12 -17 4 -4 9 7 17 15 17 17 0 8 -8 3 -21 -13z"/>
<path d="M7910 1330 c-9 -6 -10 -10 -3 -10 6 0 15 5 18 10 8 12 4 12 -15 0z"/>
<path d="M2406 1304 c-11 -8 -16 -14 -10 -14 13 0 39 18 34 24 -3 2 -14 -2
-24 -10z"/>
<path d="M2433 1275 c0 -8 4 -12 9 -9 4 3 8 9 8 15 0 5 -4 9 -8 9 -5 0 -9 -7
-9 -15z"/>
<path d="M7810 1280 c0 -5 5 -10 10 -10 6 0 10 5 10 10 0 6 -4 10 -10 10 -5 0
-10 -4 -10 -10z"/>
<path d="M7845 1280 c-3 -6 1 -7 9 -4 18 7 21 14 7 14 -6 0 -13 -4 -16 -10z"/>
<path d="M2490 1242 c0 -5 7 -9 15 -9 8 0 12 4 9 9 -3 4 -9 8 -15 8 -5 0 -9
-4 -9 -8z"/>
<path d="M7748 1233 c6 -2 10 -8 8 -12 -3 -4 1 -8 9 -8 11 0 12 4 4 14 -6 7
-17 13 -23 12 -7 0 -6 -2 2 -6z"/>
<path d="M2490 1216 c0 -2 8 -10 18 -17 15 -13 16 -12 3 4 -13 16 -21 21 -21
13z"/>
<path d="M7732 1196 c1 -14 5 -23 9 -20 7 4 0 44 -7 44 -2 0 -3 -11 -2 -24z"/>
<path d="M7707 1191 c-4 -17 -3 -21 5 -13 5 5 8 16 6 23 -3 8 -7 3 -11 -10z"/>
<path d="M2586 1185 c-11 -8 -15 -15 -9 -15 6 0 16 7 23 15 16 19 11 19 -14 0z"/>
<path d="M2593 1145 c0 -8 4 -12 9 -9 5 3 6 10 3 15 -9 13 -12 11 -12 -6z"/>
<path d="M7670 1149 c0 -5 5 -7 10 -4 6 3 10 8 10 11 0 2 -4 4 -10 4 -5 0 -10
-5 -10 -11z"/>
<path d="M7550 1115 c-7 -9 -10 -18 -6 -22 3 -3 6 -1 6 6 0 7 7 11 14 8 10 -4
13 -1 9 9 -6 18 -8 18 -23 -1z"/>
<path d="M2734 1098 c-4 -6 -3 -8 3 -5 19 12 24 -37 6 -50 -9 -7 -12 -13 -6
-13 22 0 34 27 23 54 -11 29 -15 32 -26 14z"/>
<path d="M7598 1103 c7 -3 16 -2 19 1 4 3 -2 6 -13 5 -11 0 -14 -3 -6 -6z"/>
<path d="M7513 1093 c-19 -7 -16 -21 5 -19 9 0 16 -5 14 -12 -1 -8 2 -11 8 -7
8 5 7 12 -2 23 -7 10 -12 18 -13 18 0 1 -6 -1 -12 -3z"/>
<path d="M7480 1069 c0 -5 -5 -7 -10 -4 -6 3 -17 -1 -26 -10 -9 -9 -23 -14
-31 -11 -8 3 -11 1 -8 -4 3 -6 1 -10 -4 -10 -6 0 -11 -4 -11 -8 0 -5 7 -9 15
-9 8 0 12 3 10 7 -4 7 41 33 59 34 10 1 21 26 12 26 -3 0 -6 -5 -6 -11z"/>
<path d="M2820 1033 c-11 -14 -11 -16 0 -6 10 10 16 9 25 -4 10 -13 13 -14 20
-2 5 8 5 11 0 7 -4 -4 -13 -1 -20 8 -10 14 -12 14 -25 -3z"/>
<path d="M7479 1033 c-13 -16 -12 -17 4 -4 9 7 17 15 17 17 0 8 -8 3 -21 -13z"/>
<path d="M2876 1015 c-9 -26 -7 -32 5 -12 6 10 9 21 6 23 -2 3 -7 -2 -11 -11z"/>
<path d="M7439 1028 c-6 -21 -5 -37 2 -32 5 3 7 9 4 14 -3 4 1 11 7 13 10 4
10 6 1 6 -7 1 -13 0 -14 -1z"/>
<path d="M2900 1011 c0 -6 4 -13 10 -16 6 -3 7 1 4 9 -7 18 -14 21 -14 7z"/>
<path d="M2910 977 c0 -2 6 -10 14 -16 11 -9 16 -9 22 1 4 7 4 10 -1 6 -4 -4
-14 -3 -22 3 -7 6 -13 9 -13 6z"/>
<path d="M7376 967 c3 -10 9 -15 12 -12 3 3 0 11 -7 18 -10 9 -11 8 -5 -6z"/>
<path d="M2967 959 c7 -7 15 -10 18 -7 3 3 -2 9 -12 12 -14 6 -15 5 -6 -5z"/>
<path d="M3008 928 c-10 -10 -14 -18 -9 -18 10 0 36 29 30 34 -2 1 -12 -6 -21
-16z"/>
<path d="M7212 920 c0 -14 2 -19 5 -12 2 6 2 18 0 25 -3 6 -5 1 -5 -13z"/>
<path d="M7233 925 c0 -8 4 -15 9 -15 4 0 8 4 8 9 0 6 -4 12 -8 15 -5 3 -9 -1
-9 -9z"/>
<path d="M3040 900 c8 -5 20 -10 25 -10 6 0 3 5 -5 10 -8 5 -19 10 -25 10 -5
0 -3 -5 5 -10z"/>
<path d="M7174 903 c4 -7 3 -13 -1 -13 -5 0 -14 -10 -22 -22 -13 -22 -13 -23
6 -5 11 9 22 14 26 11 3 -3 4 1 3 10 -1 8 -6 19 -11 23 -4 4 -5 2 -1 -4z"/>
<path d="M3093 885 c0 -8 4 -12 9 -9 5 3 6 10 3 15 -9 13 -12 11 -12 -6z"/>
<path d="M3125 880 c3 -5 8 -10 11 -10 2 0 4 5 4 10 0 6 -5 10 -11 10 -5 0 -7
-4 -4 -10z"/>
<path d="M7112 871 c-11 -7 -11 -9 0 -14 9 -3 15 1 15 9 0 8 -1 14 -1 14 -1 0
-7 -4 -14 -9z"/>
<path d="M3150 865 c0 -5 5 -17 10 -25 5 -8 10 -10 10 -5 0 6 -5 17 -10 25 -5
8 -10 11 -10 5z"/>
<path d="M3185 860 c-3 -6 1 -7 9 -4 18 7 21 14 7 14 -6 0 -13 -4 -16 -10z"/>
<path d="M7070 849 c0 -5 -5 -7 -12 -3 -7 4 -8 3 -4 -5 6 -9 11 -9 22 0 17 14
18 19 4 19 -5 0 -10 -5 -10 -11z"/>
<path d="M3235 840 c-3 -5 -1 -10 4 -10 6 0 11 5 11 10 0 6 -2 10 -4 10 -3 0
-8 -4 -11 -10z"/>
<path d="M7022 842 c-9 -6 -5 -12 14 -21 15 -6 29 -10 31 -7 2 2 -5 7 -16 11
-12 3 -19 11 -16 16 7 11 4 11 -13 1z"/>
<path d="M7096 833 c-6 -14 -5 -15 5 -6 7 7 10 15 7 18 -3 3 -9 -2 -12 -12z"/>
<path d="M6988 834 c-4 -3 -14 -7 -25 -8 -10 -2 -19 -10 -19 -20 -2 -13 -1
-13 3 -1 2 8 8 13 12 10 5 -2 17 2 27 10 10 8 16 15 13 15 -3 0 -8 -3 -11 -6z"/>
<path d="M3255 821 c-3 -5 -2 -12 3 -15 5 -3 9 1 9 9 0 17 -3 19 -12 6z"/>
<path d="M3284 809 c1 -7 10 -13 19 -15 9 -1 15 2 11 7 -3 5 -9 7 -14 4 -4 -3
-11 0 -13 5 -3 6 -4 5 -3 -1z"/>
<path d="M6991 811 c-8 -5 -9 -11 -3 -15 5 -3 12 1 16 9 6 17 6 18 -13 6z"/>
<path d="M3235 780 c-3 -5 -1 -10 4 -10 6 0 11 5 11 10 0 6 -2 10 -4 10 -3 0
-8 -4 -11 -10z"/>
<path d="M3358 773 c7 -3 16 -2 19 1 4 3 -2 6 -13 5 -11 0 -14 -3 -6 -6z"/>
<path d="M3420 773 c0 -7 5 -15 10 -18 6 -4 8 -11 5 -16 -4 -5 -1 -9 4 -9 15
0 13 11 -4 34 -8 11 -15 15 -15 9z"/>
<path d="M6953 765 c0 -8 4 -12 9 -9 5 3 6 10 3 15 -9 13 -12 11 -12 -6z"/>
<path d="M6805 760 c-4 -6 -11 -7 -17 -4 -7 4 -8 2 -4 -5 6 -9 11 -9 22 0 14
11 18 19 10 19 -3 0 -8 -5 -11 -10z"/>
<path d="M6915 749 c-4 -6 -5 -12 -2 -15 2 -3 7 2 10 11 7 17 1 20 -8 4z"/>
<path d="M6815 741 c-3 -5 0 -13 6 -17 8 -5 9 -3 4 6 -6 10 -1 11 21 6 21 -5
25 -4 14 4 -19 12 -37 13 -45 1z"/>
<path d="M3499 738 c-6 -27 -5 -39 4 -45 7 -3 9 -3 5 2 -4 4 -3 14 3 21 7 8 7
14 -1 19 -5 3 -10 5 -11 3z"/>
<path d="M3435 700 c-3 -5 -1 -10 4 -10 6 0 11 5 11 10 0 6 -2 10 -4 10 -3 0
-8 -4 -11 -10z"/>
<path d="M3590 700 c0 -5 5 -10 11 -10 5 0 7 5 4 10 -3 6 -8 10 -11 10 -2 0
-4 -4 -4 -10z"/>
<path d="M6748 703 c6 -2 18 -2 25 0 6 3 1 5 -13 5 -14 0 -19 -2 -12 -5z"/>
<path d="M3569 677 c6 -8 7 -18 3 -22 -4 -5 -1 -5 6 -1 10 6 10 11 1 22 -6 8
-14 14 -16 14 -3 0 0 -6 6 -13z"/>
<path d="M6800 680 c-9 -6 -10 -10 -3 -10 6 0 15 5 18 10 8 12 4 12 -15 0z"/>
<path d="M3666 663 c-6 -14 -5 -15 5 -6 7 7 10 15 7 18 -3 3 -9 -2 -12 -12z"/>
<path d="M3615 660 c3 -5 8 -10 11 -10 2 0 4 5 4 10 0 6 -5 10 -11 10 -5 0 -7
-4 -4 -10z"/>
<path d="M6595 659 c-4 -6 -5 -12 -2 -15 2 -3 7 2 10 11 7 17 1 20 -8 4z"/>
<path d="M6670 659 c0 -5 5 -7 10 -4 6 3 10 8 10 11 0 2 -4 4 -10 4 -5 0 -10
-5 -10 -11z"/>
<path d="M6496 647 c3 -10 9 -15 12 -12 3 3 0 11 -7 18 -10 9 -11 8 -5 -6z"/>
<path d="M3750 639 c0 -8 47 -5 55 3 3 3 -8 5 -25 5 -16 0 -30 -4 -30 -8z"/>
<path d="M6460 640 c-9 -6 -10 -10 -3 -10 6 0 15 5 18 10 8 12 4 12 -15 0z"/>
<path d="M6569 637 c6 -8 7 -18 3 -22 -4 -5 -1 -5 6 -1 10 6 10 11 1 22 -6 8
-14 14 -16 14 -3 0 0 -6 6 -13z"/>
<path d="M3795 620 c-4 -6 1 -7 11 -3 13 5 15 3 9 -7 -5 -9 -4 -11 4 -6 6 4 9
12 6 17 -8 12 -22 12 -30 -1z"/>
<path d="M6470 620 c-9 -6 -10 -10 -3 -10 6 0 15 5 18 10 8 12 4 12 -15 0z"/>
<path d="M6486 605 c-11 -8 -15 -15 -9 -15 6 0 16 7 23 15 16 19 11 19 -14 0z"/>
<path d="M3950 590 c-8 -5 -10 -10 -5 -10 6 0 17 5 25 10 8 5 11 10 5 10 -5 0
-17 -5 -25 -10z"/>
<path d="M6270 591 c0 -6 4 -13 10 -16 6 -3 7 1 4 9 -7 18 -14 21 -14 7z"/>
<path d="M6345 587 c-15 -12 -16 -15 -4 -22 8 -5 11 -5 7 0 -4 4 0 14 10 21
23 18 11 18 -13 1z"/>
<path d="M3855 580 c3 -5 8 -10 11 -10 2 0 4 5 4 10 0 6 -5 10 -11 10 -5 0 -7
-4 -4 -10z"/>
<path d="M4041 564 c0 -11 3 -14 6 -6 3 7 2 16 -1 19 -3 4 -6 -2 -5 -13z"/>
<path d="M6160 560 c0 -5 5 -10 11 -10 5 0 7 5 4 10 -3 6 -8 10 -11 10 -2 0
-4 -4 -4 -10z"/>
<path d="M3970 539 c0 -5 5 -7 10 -4 6 3 10 8 10 11 0 2 -4 4 -10 4 -5 0 -10
-5 -10 -11z"/>
<path d="M4080 546 c0 -2 7 -7 16 -10 8 -3 12 -2 9 4 -6 10 -25 14 -25 6z"/>
<path d="M4135 541 c-3 -5 0 -13 6 -17 8 -5 9 -3 4 6 -6 10 -3 12 13 8 12 -4
20 -2 16 3 -7 12 -31 12 -39 0z"/>
<path d="M4190 539 c0 -5 4 -8 9 -4 6 3 13 -1 18 -9 7 -12 10 -12 23 2 13 14
12 15 -3 9 -9 -3 -19 -2 -22 3 -8 13 -25 13 -25 -1z"/>
<path d="M6076 534 c-23 -22 -20 -31 3 -10 15 13 20 14 24 4 4 -9 6 -9 6 -1 2
20 -17 24 -33 7z"/>
<path d="M6193 535 c0 -8 4 -12 9 -9 4 3 8 9 8 15 0 5 -4 9 -8 9 -5 0 -9 -7
-9 -15z"/>
<path d="M4256 525 c-3 -8 -1 -15 4 -15 6 0 10 7 10 15 0 8 -2 15 -4 15 -2 0
-6 -7 -10 -15z"/>
<path d="M4294 519 c-5 -8 -3 -9 6 -4 9 6 12 4 8 -7 -4 -9 0 -15 8 -15 18 0
18 11 0 26 -11 9 -16 9 -22 0z"/>
<path d="M6015 520 c3 -5 8 -10 11 -10 2 0 4 5 4 10 0 6 -5 10 -11 10 -5 0 -7
-4 -4 -10z"/>
<path d="M6133 511 c0 -11 5 -18 9 -15 4 3 5 11 1 19 -7 21 -12 19 -10 -4z"/>
<path d="M4195 511 c-3 -5 -2 -12 3 -15 5 -3 9 1 9 9 0 17 -3 19 -12 6z"/>
<path d="M4348 507 c7 -8 8 -18 4 -22 -4 -5 -1 -5 6 -1 17 10 15 23 -4 30 -13
5 -14 4 -6 -7z"/>
<path d="M4130 506 c0 -2 7 -7 16 -10 8 -3 12 -2 9 4 -6 10 -25 14 -25 6z"/>
<path d="M5988 503 c7 -3 16 -2 19 1 4 3 -2 6 -13 5 -11 0 -14 -3 -6 -6z"/>
<path d="M6090 499 c0 -5 5 -7 10 -4 6 3 10 8 10 11 0 2 -4 4 -10 4 -5 0 -10
-5 -10 -11z"/>
<path d="M4275 490 c-4 -6 -11 -7 -17 -4 -7 4 -8 2 -4 -5 6 -9 11 -9 22 0 14
11 18 19 10 19 -3 0 -8 -5 -11 -10z"/>
<path d="M4426 483 c-6 -14 -5 -15 5 -6 7 7 10 15 7 18 -3 3 -9 -2 -12 -12z"/>
<path d="M4473 485 c0 -8 4 -12 8 -9 4 2 10 -2 12 -8 4 -8 6 -9 6 -2 1 6 -5
17 -12 23 -10 8 -14 7 -14 -4z"/>
<path d="M5777 485 c-4 -8 -3 -16 1 -19 4 -3 9 4 9 15 2 23 -3 25 -10 4z"/>
<path d="M5690 480 c-9 -6 -10 -10 -3 -10 6 0 15 5 18 10 8 12 4 12 -15 0z"/>
<path d="M5719 473 c-13 -16 -12 -17 4 -4 9 7 17 15 17 17 0 8 -8 3 -21 -13z"/>
<path d="M5850 478 c0 -6 3 -8 7 -5 3 4 13 1 22 -6 14 -11 14 -10 2 6 -15 20
-31 22 -31 5z"/>
<path d="M5975 480 c3 -5 8 -10 11 -10 2 0 4 5 4 10 0 6 -5 10 -11 10 -5 0 -7
-4 -4 -10z"/>
<path d="M4630 470 c8 -5 20 -10 25 -10 6 0 3 5 -5 10 -8 5 -19 10 -25 10 -5
0 -3 -5 5 -10z"/>
<path d="M5610 471 c0 -6 3 -11 8 -12 4 0 15 -2 24 -4 12 -2 15 2 10 13 -4 11
-7 12 -10 4 -3 -10 -7 -10 -18 -1 -10 8 -14 8 -14 0z"/>
<path d="M4596 453 c-6 -14 -5 -15 5 -6 7 7 10 15 7 18 -3 3 -9 -2 -12 -12z"/>
<path d="M4785 444 c-9 -15 -12 -23 -6 -20 11 7 35 46 28 46 -3 0 -12 -12 -22
-26z"/>
<path d="M5736 461 c-3 -5 1 -14 8 -20 10 -9 16 -9 21 -1 4 6 1 9 -7 8 -7 -2
-12 3 -10 10 2 14 -4 16 -12 3z"/>
<path d="M4555 450 c-4 -6 -11 -7 -17 -4 -7 4 -8 2 -4 -5 6 -9 11 -9 22 0 14
11 18 19 10 19 -3 0 -8 -5 -11 -10z"/>
<path d="M4675 450 c3 -5 8 -10 11 -10 2 0 4 5 4 10 0 6 -5 10 -11 10 -5 0 -7
-4 -4 -10z"/>
<path d="M4903 445 c0 -8 4 -12 9 -9 5 3 6 10 3 15 -9 13 -12 11 -12 -6z"/>
<path d="M5393 440 c-1 -11 2 -20 7 -20 4 0 7 7 6 15 -3 23 -12 26 -13 5z"/>
<path d="M5483 440 c-8 -12 -9 -21 -3 -25 6 -4 9 -1 8 7 -2 7 2 12 9 11 7 -2
10 4 7 12 -8 19 -7 19 -21 -5z"/>
<path d="M4701 436 c-9 -11 -9 -16 1 -22 7 -4 10 -4 6 1 -4 4 -3 14 3 22 6 7
9 13 6 13 -2 0 -10 -6 -16 -14z"/>
<path d="M4810 439 c0 -7 3 -10 6 -6 3 3 18 1 33 -4 15 -6 22 -6 16 -1 -18 17
-55 24 -55 11z"/>
<path d="M5069 441 c11 -7 10 -11 -5 -20 -11 -6 -14 -11 -8 -11 12 0 34 20 34
32 0 4 -8 8 -17 8 -14 0 -15 -2 -4 -9z"/>
<path d="M5311 430 c-13 -11 -19 -20 -13 -20 5 0 15 7 22 15 7 8 16 12 21 9 5
-3 9 0 9 5 0 16 -12 13 -39 -9z"/>
<path d="M5356 422 c-3 -5 1 -9 9 -9 8 0 12 4 9 9 -3 4 -7 8 -9 8 -2 0 -6 -4
-9 -8z"/>
<path d="M5570 419 c0 -5 5 -7 10 -4 6 3 10 8 10 11 0 2 -4 4 -10 4 -5 0 -10
-5 -10 -11z"/>
<path d="M5655 420 c-3 -5 -1 -10 4 -10 6 0 11 5 11 10 0 6 -2 10 -4 10 -3 0
-8 -4 -11 -10z"/>
<path d="M5154 400 c0 -13 4 -16 10 -10 7 7 7 13 0 20 -6 6 -10 3 -10 -10z"/>
<path d="M4775 400 c-3 -5 -1 -10 4 -10 6 0 11 5 11 10 0 6 -2 10 -4 10 -3 0
-8 -4 -11 -10z"/>
<path d="M4810 406 c0 -2 7 -7 16 -10 8 -3 12 -2 9 4 -6 10 -25 14 -25 6z"/>
<path d="M5120 400 c-9 -6 -10 -10 -3 -10 6 0 15 5 18 10 8 12 4 12 -15 0z"/>
</g>
</svg>
